<?xml version="1.0" encoding="UTF-8" standalone="no"?>
<!-- Created with Inkscape (http://www.inkscape.org/) -->

<svg
   xmlns:dc="http://purl.org/dc/elements/1.1/"
   xmlns:cc="http://creativecommons.org/ns#"
   xmlns:rdf="http://www.w3.org/1999/02/22-rdf-syntax-ns#"
   xmlns:svg="http://www.w3.org/2000/svg"
   xmlns="http://www.w3.org/2000/svg"
   xmlns:sodipodi="http://sodipodi.sourceforge.net/DTD/sodipodi-0.dtd"
   xmlns:inkscape="http://www.inkscape.org/namespaces/inkscape"
   width="83.363937"
   height="109.32602"
   id="svg4030"
   version="1.1"
   inkscape:version="0.48.3.1 r9886"
   sodipodi:docname="New document 8">
  <defs
     id="defs4032" />
  <sodipodi:namedview
     id="base"
     pagecolor="#ffffff"
     bordercolor="#666666"
     borderopacity="1.0"
     inkscape:pageopacity="0.0"
     inkscape:pageshadow="2"
     inkscape:zoom="3.959798"
     inkscape:cx="25.065052"
     inkscape:cy="52.34242"
     inkscape:document-units="px"
     inkscape:current-layer="svg4030"
     showgrid="false"
     fit-margin-top="0"
     fit-margin-left="0"
     fit-margin-right="0"
     fit-margin-bottom="0"
     inkscape:window-width="1918"
     inkscape:window-height="1164"
     inkscape:window-x="0"
     inkscape:window-y="34"
     inkscape:window-maximized="0" />
  <metadata
     id="metadata4035">
    <rdf:RDF>
      <cc:Work
         rdf:about="">
        <dc:format>image/svg+xml</dc:format>
        <dc:type
           rdf:resource="http://purl.org/dc/dcmitype/StillImage" />
        <dc:title></dc:title>
      </cc:Work>
    </rdf:RDF>
  </metadata>
  <path
     sodipodi:nodetypes="zzzzzzzzz"
     inkscape:connector-curvature="0"
     id="path3216"
     d="m 22.60557,2.23074 c 4.80519,-1.40119 7.62771,-1.88405 11.34206,-2.14217 3.71434,-0.25813 5.54894,1.3741 5.68211,3.93662 0.13317,2.56252 2.84237,39.53204 2.59965,42.78293 -0.24272,3.25089 -1.37409,4.82794 -2.97103,5.27359 -1.59694,0.44566 -3.81418,0.80675 -6.53629,-3.26814 C 29.99997,44.73869 9.71413,12.80928 9.21375,11.71275 8.71337,10.61621 8.7681,8.25869 11.47916,6.62485 14.19023,4.99101 17.80038,3.63193 22.60557,2.23074 z"
     style="fill:none;stroke:#000000;stroke-width:0.1;stroke-linecap:butt;stroke-linejoin:miter;stroke-miterlimit:4;stroke-opacity:1;stroke-dasharray:none" />
  <path
     sodipodi:nodetypes="zzzzzzzzz"
     inkscape:connector-curvature="0"
     id="path4007"
     d="m 50.3219,58.96337 c 1.02466,1.89839 3.05148,3.05004 5.74017,2.40349 2.6887,-0.64655 21.20118,-5.18739 23.70582,-5.93487 2.50464,-0.74749 3.3277,-2.72374 2.62577,-5.35715 -0.70193,-2.6334 -1.83594,-4.73934 -4.88445,-9.40126 -3.0485,-4.66191 -5.45355,-6.7356 -7.12972,-7.79937 -1.67617,-1.06376 -3.74746,-0.65358 -4.84507,0.65652 -1.09761,1.3101 -13.6837,18.39896 -14.98403,20.25497 -1.30033,1.85601 -1.25316,3.27927 -0.22849,5.17767 z"
     style="fill:none;stroke:#000000;stroke-width:0.1;stroke-linecap:butt;stroke-linejoin:miter;stroke-miterlimit:4;stroke-opacity:1;stroke-dasharray:none" />
  <path
     inkscape:transform-center-y="13.455341"
     inkscape:transform-center-x="-15.162415"
     style="fill:none;stroke:#000000;stroke-width:0.1;stroke-linecap:butt;stroke-linejoin:miter;stroke-miterlimit:4;stroke-opacity:1;stroke-dasharray:none"
     d="m 52.18505,72.34537 c -1.49685,1.55348 -1.92183,3.90881 -0.4882,6.27351 1.43361,2.36471 11.3709,18.45219 12.8447,20.61087 1.4738,2.15868 3.71818,2.546 5.92052,1.03929 2.20234,-1.50672 3.99361,-3.1532 7.43331,-7.53082 3.43971,-4.37761 4.79514,-7.22513 5.29876,-9.14542 0.50361,-1.92029 -0.4985,-3.86157 -2.08036,-4.50875 -1.58185,-0.64719 -21.70756,-7.34711 -23.87112,-8.02139 -2.16355,-0.67428 -3.56076,-0.27077 -5.05761,1.28271 z"
     id="path4009"
     inkscape:connector-curvature="0"
     sodipodi:nodetypes="zzzzzzzzz" />
  <path
     inkscape:transform-center-y="25.484616"
     inkscape:transform-center-x="12.006171"
     style="fill:none;stroke:#000000;stroke-width:0.1;stroke-linecap:butt;stroke-linejoin:miter;stroke-miterlimit:4;stroke-opacity:1;stroke-dasharray:none"
     d="M 38.8369,76.11752 C 36.90636,75.48358 34.94391,75.66161 33.52696,77.31643 32.11,78.97125 19.03595,94.39092 17.44648,96.4659 c -1.58947,2.07498 -1.07001,4.1582 1.04364,5.87867 2.11365,1.72046 4.00505,2.62898 9.20913,4.61503 5.20407,1.98606 8.55219,2.41148 10.53366,2.28927 1.98146,-0.1222 3.44422,-1.77481 3.56423,-3.47971 0.12001,-1.70491 0.25743,-22.90157 0.22125,-25.16747 -0.0362,-2.26591 -1.25095,-3.85024 -3.18149,-4.48417 z"
     id="path4011"
     inkscape:connector-curvature="0"
     sodipodi:nodetypes="zzzzzzzzz" />
  <path
     sodipodi:nodetypes="zzzzzzzzz"
     inkscape:connector-curvature="0"
     id="path4013"
     d="m 32.90908,65.23751 c 0.11478,-2.1734 -0.9277,-4.0111 -2.76713,-4.84829 -1.83942,-0.83718 -20.66535,-8.45276 -23.12544,-9.3359 -2.46009,-0.88312 -4.38655,0.094 -5.28572,2.60635 -0.89918,2.51236 -1.436,4.92294 -1.65246,10.48606 -0.21648,5.56311 0.43568,8.62481 1.1547,10.47526 0.71903,1.85044 2.52518,2.87371 4.18583,2.46953 1.66065,-0.40418 21.88861,-6.78874 24.03619,-7.51232 2.14756,-0.72358 3.33925,-2.1673 3.45403,-4.34069 z"
     style="fill:none;stroke:#000000;stroke-width:0.1;stroke-linecap:butt;stroke-linejoin:miter;stroke-miterlimit:4;stroke-opacity:1;stroke-dasharray:none"
     inkscape:transform-center-x="27.832762"
     inkscape:transform-center-y="-2.0719931" />
</svg>
