<?xml version="1.0" encoding="UTF-8" standalone="no"?>
<svg xmlns="http://www.w3.org/2000/svg" width="128" height="128">
<path d="m58.7,25.7c-4.6,.1 -14.6,3.1 -16.7,5.2 -.7,.7 -1.0,1.7 -.8,2.6 .3,.7 16.1,25.5 16.1,25.5 2.3,3.7 4.2,3.1 4.8,3 .6,-.1 2.4,-.7 2.2,-5.1 -.2,-5.1 -1.7,-28.1 -1.9,-29.2 -.2,-.9 -1.0,-1.6 -2.1,-1.9 -.4,-.1 -.9,-.1 -1.6,-.1zm23.8,22.5c-.4,.0 -.9,.1 -1.3,.4 -.5,.3 -.8,.8 -7.8,10.3 0,0 -3.1,4.2 -3.1,4.3 -.8,1.0 -.8,2.4 -.0,3.7 .8,1.2 2.2,1.8 3.5,1.5 0,0 -.0,.1 -.0,.1 .6,-.2 1.7,-.5 3.8,-1.0 13.0,-3.1 13.5,-3.3 14.0,-3.6 .7,-.5 1.1,-1.4 1.1,-2.5 0,-.0 .0,-.0 0,-.1 -.3,-3.1 -5.9,-11.5 -8.7,-12.8 -.4,-.2 -.9,-.3 -1.4,-.3zM38.7,61.2c-.9,-.0 -1.8,.4 -2.4,1.3 -1.2,1.9 -1.7,8.2 -1.3,12.4 .1,1.3 .3,2.5 .7,3.1 .4,.9 1.3,1.5 2.2,1.5 .6,.0 .9,-.0 12.4,-3.7 0,0 5.1,-1.6 5.1,-1.6 1.2,-.3 2.1,-1.5 2.2,-3 .0,-1.5 -.7,-2.8 -2.0,-3.3 0,0 -3.5,-1.4 -3.5,-1.4C39.9,61.4 39.3,61.2 38.7,61.2zM73.8,75.2c-.9,-.0 -1.8,.4 -2.5,1.3 -.9,1.1 -1.1,2.7 -.3,3.9l2,3.3C79.6,94.8 80.2,95.6 80.7,96c.7,.5 1.7,.6 2.7,.2 2.8,-1.1 9.2,-9.1 9.6,-12.2 .1,-1.0 -.1,-2.0 -.9,-2.5 -.4,-.3 -.8,-.5 -12.3,-4.2 0,0 -5.0,-1.6 -5.0,-1.6 -.3,-.1 -.6,-.1 -.9,-.1zm-13.3,3.5c-.8,.0 -1.6,.4 -2.1,1.1 0,0 -2.5,2.9 -2.5,2.9 -8.6,10.1 -9.0,10.6 -9.2,11.2 -.1,.3 -.1,.7 -.1,1.1 .0,.5 .2,1.0 .6,1.5 2.0,2.3 11.6,5.8 14.6,5.3 1.0,-.1 1.8,-.7 2.1,-1.6 .1,-.5 .2,-.9 .2,-13.0 0,0 .0,-5.3 .0,-5.3 .0,-1.3 -.7,-2.5 -2.1,-3.0 -.5,-.2 -1.1,-.2 -1.6,-.2z" />
</svg>
